<?xml version="1.0" encoding="utf-8"?>
<!-- Generator: Adobe Illustrator 25.0.1, SVG Export Plug-In . SVG Version: 6.00 Build 0)  -->
<svg version="1.1" id="Layer_1" xmlns="http://www.w3.org/2000/svg" xmlns:xlink="http://www.w3.org/1999/xlink" x="0px" y="0px"
	 viewBox="0 0 512 512" style="enable-background:new 0 0 512 512;" xml:space="preserve">
<style type="text/css">
	.st0{fill:#479DD6;}
	.st1{fill:none;stroke:#479DD6;stroke-width:10;stroke-miterlimit:10;}
</style>
<g>
	<path class="st0" d="M199.6,478c0.8-4.1,1.7-8.2,2.5-12.3c5.1-25.5,10.1-51,15.2-76.5c0.4-1.8,1.4-3.7,2.7-5
		c25.7-25.8,51.4-51.5,77.2-77.2c0.8-0.8,1.8-1.4,3.1-2.4c-38-34.2-81.1-46.8-130.3-35c-30.7,7.4-55.8,24.2-75.3,49.1
		c-19.5,24.9-28.8,53.4-29.4,85.1c-11.5,0-22.8,0-34.6,0c0.2-34.7,9.8-66.4,28.9-95.1c19.1-28.7,44.8-49.9,76.5-63.9
		c-35.9-26.6-54.7-61.7-53.1-106.4c1.2-33.1,14.7-61.1,39-83.6c50-46.2,127.1-42.1,172.4,8c48.2,53.3,40.4,138.5-21.6,181.5
		c9,5.1,18.3,9.8,27,15.6c8.7,5.7,16.7,12.5,25.5,19.2c2.1-2.2,4.5-5,7.1-7.5c20.1-20.2,40.1-40.4,60.5-60.4
		c14.4-14.1,31.8-18.6,51.2-13.1c19.3,5.5,31.6,18.5,36.1,38.1c4.4,18.9-0.7,35.6-14.4,49.4c-51.6,51.7-103.4,103.3-155,155
		c-5.8,5.8-11.5,11.6-17.4,17.3c-1.2,1.2-2.9,2.1-4.5,2.4c-29.5,6-59,11.9-88.6,17.8C200.3,478.1,200.1,478.1,199.6,478z
		 M204.3,230.6c47.9,0,86.8-38.5,86.8-86.1c0-48.3-38.5-87.3-86.3-87.3c-48.4,0-87.4,38.5-87.4,86.5
		C117.5,192,156.1,230.6,204.3,230.6z M243.4,434.4c9.6-2,18.6-3.8,27.5-5.9c2-0.5,4.1-1.5,5.5-2.9c46.2-46,92.3-92.1,138.5-138.2
		c9-9,18.1-18,27.1-27.1c5.3-5.4,7.1-11.7,4.3-18.8c-4.6-11.7-20.1-14.3-29.4-5c-53.4,53.7-107.1,107.2-160.8,160.7
		c-4.4,4.4-7.3,8.9-8.2,15C246.8,419.5,245,426.7,243.4,434.4z"/>
</g>
<path class="st1" d="M490.3,502.3H22.5c-6.6,0-12-5.4-12-12V22.5c0-6.6,5.4-12,12-12h467.8c6.6,0,12,5.4,12,12v467.8
	C502.3,496.9,496.9,502.3,490.3,502.3z"/>
</svg>
