<?xml version="1.0" encoding="utf-8"?>
<!-- Generator: Adobe Illustrator 25.0.1, SVG Export Plug-In . SVG Version: 6.00 Build 0)  -->
<svg version="1.1" id="Layer_1" xmlns="http://www.w3.org/2000/svg" xmlns:xlink="http://www.w3.org/1999/xlink" x="0px" y="0px"
	 viewBox="0 0 512 512" style="enable-background:new 0 0 512 512;" xml:space="preserve">
<style type="text/css">
	.st0{fill:#070707;}
	.st1{fill:#419FD8;}
</style>
<g>
	<path class="st0" d="M165.9,213.8c31.8-27,62-54.8,77.2-93.9c7.1-18.1,8.4-38.5,12.3-57.9c1.3-6.7,3.1-13.3,3.6-20
		C260,29,267,21,279.1,18.2c10.2-2.3,20.9-4.2,31.4-3.9c12.9,0.3,21.4,9,27.3,20c9.7,18.1,12.3,38.1,13.9,58.2
		c2.7,35,0.1,69.6-9.6,104.9c4.1,0,7.2,0,10.4,0c34,0.3,68,0.4,102,0.9c4.4,0.1,8.8,1,13.1,2.1c17.6,4.8,31.3,14.3,36.3,32.8
		c5.2,18.9-0.9,34.9-14.2,48.6c-1.4,1.5-2.7,3.1-4.6,5.2c0.5,1.2,1.3,3,2.2,4.8c10.4,20.6,7,38.1-10.8,52.8
		c-4.3,3.5-5.3,6.4-3.8,11.7c7,25.2-0.9,44-23.2,57.3c-2.3,1.4-5.1,4.4-5.1,6.7c-1,30.4-20.4,52.2-50.3,52.8
		c-50.5,0.9-101.1,1.1-151.6-0.3c-13-0.4-26-7-38.6-11.8c-11.5-4.4-22.4-10.3-33.6-15.5c-7.5,21.9-16,28-38.3,28
		c-27.2,0-54.4,0.1-81.6,0c-21.1-0.1-33.8-12.5-33.8-33.6c-0.1-69.5-0.1-139,0-208.5c0-21,11.8-33.5,32.6-33.8
		c29.3-0.4,58.5-0.1,87.8-0.1C149.1,197.4,158.9,202.6,165.9,213.8z M169.4,331.1c0,24.5-0.1,49.1,0.2,73.6c0,2.8,1.9,7,4.1,8.1
		c13.8,6.7,27.7,13.3,41.9,18.9c9.8,3.9,20.1,8.6,30.2,8.8c48.2,0.9,96.3,0.7,144.5,0.3c19-0.1,25.2-8.4,22.2-27.1
		c-2.2-14-1-16.3,11.7-21.6c21.2-8.9,24.7-17.7,15.2-38.7c-0.6-1.3-1.4-2.6-1.9-4c-3.2-8.4-1.4-13.9,6.3-18.9
		c2.5-1.6,5.1-2.9,7.6-4.5c11.5-7.4,14.2-18.6,7.2-30.5c-1.8-3-4.1-5.8-6.1-8.7c-4.1-5.9-3.4-11,2.3-15.4c3.3-2.5,6.9-4.7,10-7.4
		c13.2-11.5,10.4-27.6-5.9-33.1c-5.7-1.9-12.2-2.5-18.3-2.5c-44-0.2-88.1-0.1-132.1-0.2c-10.6,0-16.4-5-17.1-14
		c-0.8-8.9,3.6-14,13.4-16.7c2.3-0.6,5.3-2.9,5.9-4.9c10.9-38.3,14.5-77.2,7.8-116.6c-1.5-8.6-4.4-17.1-7.2-25.5
		c-2.9-8.8-10.3-5.6-16.5-5.6c-6,0-7,3.5-7.7,8.4c-1.9,12.3-4.7,24.4-6.5,36.6c-4,28-10.6,54.7-27.7,78.3
		c-21.6,29.8-47.6,54.8-76.5,77.1c-5.3,4.1-7.2,8.2-7.1,14.8C169.6,283.8,169.4,307.5,169.4,331.1z M47.3,228.6
		c0,71.6,0,142.1,0,213.2c30.4,0,60.3,0,90.6,0c0-71.2,0-142.2,0-213.2C107.5,228.6,77.7,228.6,47.3,228.6z"/>
	<path class="st1" d="M169.4,331.1c0-23.7,0.2-47.3-0.2-70.9c-0.1-6.6,1.8-10.7,7.1-14.8c28.9-22.2,55-47.3,76.5-77.1
		C270,144.7,276.6,118,280.6,90c1.8-12.3,4.6-24.4,6.5-36.6c0.8-4.9,1.7-8.4,7.7-8.4c6.2,0,13.6-3.2,16.5,5.6
		c2.8,8.4,5.7,16.8,7.2,25.5c6.7,39.4,3.1,78.3-7.8,116.6c-0.6,2.1-3.6,4.3-5.9,4.9c-9.8,2.7-14.1,7.8-13.4,16.7
		c0.8,9,6.5,14,17.1,14c44,0.1,88.1-0.1,132.1,0.2c6.1,0,12.5,0.6,18.3,2.5c16.4,5.5,19.1,21.7,5.9,33.1c-3.1,2.7-6.7,4.9-10,7.4
		c-5.7,4.4-6.4,9.6-2.3,15.4c2,2.9,4.3,5.6,6.1,8.7c7,11.9,4.3,23.2-7.2,30.5c-2.5,1.6-5.1,2.9-7.6,4.5c-7.7,5-9.5,10.4-6.3,18.9
		c0.5,1.4,1.3,2.7,1.9,4c9.5,21,6.1,29.8-15.2,38.7c-12.7,5.3-13.9,7.6-11.7,21.6c3,18.7-3.2,27-22.2,27.1
		c-48.2,0.3-96.3,0.6-144.5-0.3c-10.2-0.2-20.5-5-30.2-8.8c-14.2-5.6-28.1-12.2-41.9-18.9c-2.2-1.1-4.1-5.3-4.1-8.1
		C169.3,380.2,169.4,355.7,169.4,331.1z"/>
	<path class="st1" d="M47.3,228.6c30.4,0,60.2,0,90.6,0c0,71,0,142,0,213.2c-30.3,0-60.2,0-90.6,0C47.3,370.7,47.3,300.2,47.3,228.6
		z"/>
</g>
</svg>
