<?xml version="1.0" encoding="utf-8"?>
<!-- Generator: Adobe Illustrator 25.0.1, SVG Export Plug-In . SVG Version: 6.00 Build 0)  -->
<svg version="1.1" id="lh_xA0_Image_1_" xmlns="http://www.w3.org/2000/svg" xmlns:xlink="http://www.w3.org/1999/xlink" x="0px"
	 y="0px" viewBox="0 0 1000 1000" style="enable-background:new 0 0 1000 1000;" xml:space="preserve">
<style type="text/css">
	.st0{fill:#FFFCF0;}
	.st1{fill:#34C3EA;}
</style>
<path class="st0" d="M996.6,500.7c0,234.6-163.3,431-382.4,481.9c-36.1,8.4-73.7,12.8-112.3,12.8c-9.1,0-18.1-0.3-27-0.7
	C214.3,980.7,7.3,764.9,7.3,500.8C7.3,227.6,228.8,6.1,502.1,6.1S996.6,227.6,996.6,500.7z"/>
<g>
	<g>
		<path class="st1" d="M576.6,551.2c0.3,1.7,0.6,3.5,0.8,5.2c1.3,15.4,2.5,30.7,3.6,46c0.6,7.5,0.9,15,1.5,22.5
			c0.6,7.9,1.6,15.7,2,23.6c0.8,12.6,3.3,25.2,1,37.8c-3,16.1-11.1,30.3-21.1,43.9c-2.8,3.8,0,0-8.9,10.8c-22,26.5-14,18.1-22,26.5
			c-6.1,6.3-12.4,12.6-18.4,19c-3.1,3.3-5.8,6.8-9,10c-11.1,11.1-22.6,22-33.4,33.3c-10.8,11.1-21.2,22.5-31.2,34.2
			c-7.9,9.1-15.4,18.5-22.3,28.2c-11.8,16.7-21.4,34.3-27,53.3c-0.3,0.9-0.6,1.8-1,2.6c-0.1,0.3-0.6,0.4-1.7,1c0-2.2-0.1-4.2,0-6
			c0.3-3.6,0.6-7.3,0.9-10.9c0.8-11.5,1.6-23,2.4-34.6c0.1-0.6,0.1-1.1,0.1-1.7c0.4-11,0.8-22,1.4-33c0.5-8.4,1.5-16.8,2.2-25.2
			c0.2-2.2,0.3-4.4,0.3-6.6c0.3-21.1,3.4-41.7,11.9-61.6c7-16.4,16.4-31.8,27.6-46.5c4.1-5.4,8.3-10.7,12.2-16.1
			c8.8-12.2,19.9-22.9,30.6-33.8c10.8-11.1,21.8-22,32.5-33.3c10.4-10.9,20.9-21.8,30.5-33.2c8.4-9.9,16.1-20.4,23-31.1
			c3.8-5.8,5.6-12.6,8.2-19c0.7-1.7,1-3.5,1.5-5.2C575.4,551.3,576,551.3,576.6,551.2z"/>
		<path class="st1" d="M530.5,494c-2.8,2.6-4.9,4.8-7.3,6.8c-8.1,6.7-16.4,13.4-24.6,20.1c-13.4,11-25.7,23-37.1,35.6
			c-8.5,9.3-15.6,19.7-23.2,29.6c-11.8,15.7-20.7,32.5-26.5,50.5c-0.1,0.4-0.6,0.9-1.8,2.4c-0.6-5.1-0.5-9.2-0.2-13.3
			c0.6-7.7,1.7-15.3,2.2-23c0.6-10.4,0.8-20.9,1.5-31.3c0.5-8.4,1.9-16.8,2.2-25.2c0.3-8.5,1-16.8,2.8-25.2
			c2.6-11.6,6.6-22.8,12.4-33.5c3.4-6.3,7-12.6,10.6-18.8c5.2-8.9,12.5-16.5,19.4-24.5c9.7-11.2,20.4-21.6,31.6-31.6
			c14.1-12.7,28.7-25,42.6-38c9.5-8.8,17-18.8,20.4-30.7c0.3-1,0.8-2,1.2-3c0.4,0,0.9,0,1.3,0c0.4,1.7,1.2,3.5,1.3,5.2
			c0.6,7.9,0.9,15.7,1.5,23.6c0.5,6.8,1.3,13.5,2,20.2c0.5,5.4,1.3,10.9,1.6,16.4c0.6,10.2,1,20.5,1.5,30.7c0.1,1.6-0.1,3.3-0.6,4.9
			c-4,12-8.8,24.1-19,33.3L530.5,494z"/>
		<path class="st1" d="M614.2,982.7c-36.1,8.4-73.7,12.8-112.3,12.8c-9.1,0-18.1-0.3-27-0.7c2-2.1,4-4,4.5-4.5
			c5.4-5.4,10.9-10.8,16.2-16.3c16.1-17,34.3-32.5,49.8-50.1c13.5-15.4,27.2-30.6,36.9-48.1c6.5-11.6,11.6-23.6,14.8-36.3
			c0.8-3.2,0.9-6.5,1.3-9.8c1,0,0.7,0,1.6-0.1c0.6,3,1.2,6,1.6,9c0.5,4.4,0.9,8.8,1.2,13.1c1,12.4,1.7,24.8,2.8,37.3
			c0.5,6.4,1.3,12.7,2,19.1c0.6,5.4,1.2,10.9,1.6,16.4c1,11.9,1.8,23.8,2.8,35.7C612.7,967.8,613.6,975.2,614.2,982.7z"/>
	</g>
	<path class="st1" d="M583.2,188.8c-0.8-1-1.8-1.4-2.8-1.8l-1.3-23.6v5.8c-0.3-0.1-0.7-0.3-1-0.4l0.3-1.4l0.8-4c0,0-14.3-6-41.9-9.5
		c0-2.4,0-4.9,0-7.3c1.7-1.1,2.8-1.7,3.7-2.4c4.7-3.4,5.2-6.8,1.1-10.8c-2-2-4.9-3.5-7.4-5.1c-0.9-0.6-1.8-1.2-2.8-1.8V82.2
		c0.9-0.5,1.8-1,2.6-1.6c1.9-1.2,3.7-2.4,5.5-3.7l-3.5-5.8l-29.9-13.6c-2.9-1.4-5.6-2.8-8.3-3.8v0.1l-1-0.4c0.3,0.1,0.7,0.3,1.1,0.4
		c0.3-0.7,0.4-1.5,0.4-2.2c0-3.8-3.6-6.9-8-6.9c-4.4,0-8,3.1-8,6.9c0,0.6,0.1,1.3,0.3,1.9l-40,15.7l-3.6,7.9c0,0,2.9,2.2,8.1,4.9
		v-1.2c0.2,0.2,0.4,0.4,0.6,0.6c0.6,0.6,1.2,1.2,1.8,1.8c0,0,0,0,0,0.1c-0.9-0.4-1.7-0.9-2.4-1.3v44.1l0.2,0.1l0.3,0.2
		c-4.5,1.7-7.1,3-7.4,3.1h-0.1c-2.4,1.5-4.2,3.3-5.5,5.7c-0.4,4.8,3.3,7.2,6.9,10c0.1,3,0.2,6.1,0.3,9.2
		c-12.9,1.6-26.8,3.8-41.4,6.9l-1.3,23c-0.4,0.5-0.8,1-1.3,1.5c-5.1,5.4-4.2,10.4,2.1,14.8c1.8,1.3,3.8,2.4,5.4,3.9
		c8.5,7.8,14.6,17.1,20.9,26.2c2.1,3,2.6,6.9,3.6,9.9c-4.7,7.5-4.4,9.3,1.4,13.3c7.9-2.4,15.2-5.6,23-6.9c7.7-1.2,15.7-3.1,24.5-0.8
		c-0.9,1.6-1.3,2.8-2.2,3.7c-3.5,3.5-7,6.9-10.6,10.3c-12,11.1-21.5,23.7-28.9,37.5c-5.1,9.6-8.2,19.7-9.2,30.2
		c-0.9,9.9-1,19.8-1.5,29.6c-0.1,0.9-0.2,1.9-0.3,2.8c-0.8,12.6-1.5,25.2-2.2,37.8c-0.1,0.9,0.4,1.8,0.9,3.6c3-6.2,5-11.7,8.2-16.6
		c7.6-11.8,15.4-23.7,23.9-35.1c7.8-10.5,16.9-20.3,27.8-28.7c6.3-4.9,12.9-9.6,19.3-14.4c7.7-5.8,15.4-11.5,23.2-17.3
		c1.5-1.1,3.3-1.9,4.3-3.3c5.6-7.3,11.4-14.7,16.5-22.2c2.9-4.4,4.7-9.3,7.4-14.9c-0.7-2.1-1.6-4.9-2.6-7.9
		c0.9-10.4,8.8-18.2,15.4-26.5c3.8-4.8,9-8.8,13.4-13.3C586.6,197.2,587,193.6,583.2,188.8z M419.3,177.7c-3.1,0.6-6.2,0.8-8.4,0.7
		c-0.8-1.2-1.3-2.4-1.6-3.7c-0.7-3.2-0.1-6.6-0.3-10c0-0.3-0.1-0.5-0.1-0.8l0.3,0.1v0.6c2.8-0.8,6.1-1.7,10.1-2.6V177.7z
		 M430.9,174.2c-2,1-4.9,2-8.1,2.8l0.4-15.9c2.4-0.5,4.9-1.1,7.6-1.6V174.2z M435.6,173.4l-0.6-14.7c2.4-0.4,4.9-0.9,7.4-1.3
		c0.2,4.7,0.3,9.6,0.5,14.7C440.6,172.6,438.1,172.9,435.6,173.4z M459.5,122.8c-1.5,0.4-2.9,0.8-4.2,1.2l-0.8-36l-0.1-2.8
		c0.1,0.1,0.1,0.1,0.2,0.1c1.5,0.6,3.1,1.3,4.9,2L459.5,122.8L459.5,122.8z M460.1,91.8c0-0.3-0.1-2.8-0.1-4.4h0.1V91.8z
		 M460.1,86.1V86h0.1C460.1,86,460.1,86.1,460.1,86.1z M479.8,119.5c-1.7,0.1-3.3,0.3-4.8,0.4l-1.2-28.4c1.9,0.4,4,0.8,6,1
		L479.8,119.5L479.8,119.5z M492.8,119.3c-1.9-0.1-3.8-0.1-5.6-0.1V93.3c1.9,0.1,3.7,0.1,5.6,0.1V119.3z M505.4,120.5
		c-1.9-0.3-3.6-0.5-5.4-0.7v-27c2-0.3,4.1-0.5,6.1-1L505.4,120.5z M523.6,125.1c-2-0.7-3.9-1.3-5.9-1.9c-0.2-0.1-0.4-0.1-0.6-0.2
		c0-2.6-0.1-5.2-0.1-6.3c0-6-0.1-19.2,0-27.7c0.2-0.1,0.4-0.1,0.6-0.3c1.9-0.7,3.9-1.5,5.9-2.4V125.1z M544.5,174.2
		c-0.5-0.1-1.1-0.3-1.6-0.4c-1-0.3-1.9-0.5-2.5-0.8c-2.4-1-3.1-2.3-3.2-5.4c-0.1-3.5-0.1-6.9-0.1-10.4c2.5,0.4,4.9,0.9,7.4,1.5
		L544.5,174.2L544.5,174.2z M558.7,177.2l-10.3-2.4v-15.4c3.5,0.8,6.9,1.7,10.3,2.7V177.2z M571.8,180.3l-7-1.7V164
		c2.4,0.8,4.7,1.5,7,2.4C571.7,171,573.4,176.1,571.8,180.3z"/>
</g>
</svg>
