<?xml version="1.0" encoding="utf-8"?>
<!-- Generator: Adobe Illustrator 25.0.1, SVG Export Plug-In . SVG Version: 6.00 Build 0)  -->
<svg version="1.1" id="lh_xA0_Image_1_" xmlns="http://www.w3.org/2000/svg" xmlns:xlink="http://www.w3.org/1999/xlink" x="0px"
	 y="0px" viewBox="0 0 4000 2779" style="enable-background:new 0 0 4000 2779;" xml:space="preserve">
<style type="text/css">
	.st0{fill:#FFFCF0;}
	.st1{fill:#34C3EA;}
</style>
<path class="st0" d="M2772.7,1522c0,366.4-255,673.2-597.2,752.7c-56.4,13.1-115.1,20-175.4,20c-14.2,0-28.3-0.4-42.2-1.1
	c-407.1-21.9-730.4-359-730.4-771.5c0-426.7,345.9-772.7,772.7-772.7S2772.7,1095.3,2772.7,1522z"/>
<g>
	<g>
		<path class="st1" d="M2116.6,1600.8c0.4,2.7,1,5.4,1.3,8.1c2,24,3.9,47.9,5.7,71.9c0.9,11.7,1.4,23.4,2.4,35.1
			c1,12.3,2.5,24.5,3.2,36.8c1.2,19.7,5.2,39.4,1.5,59.1c-4.7,25.1-17.3,47.4-33,68.6c-4.4,6,0,0-13.9,16.8
			c-34.4,41.4-21.8,28.2-34.4,41.4c-9.5,9.9-19.3,19.7-28.8,29.7c-4.9,5.1-9.1,10.6-14.1,15.6c-17.3,17.4-35.3,34.3-52.2,52
			c-16.8,17.4-33.1,35.2-48.7,53.4c-12.3,14.2-24.1,28.9-34.8,44.1c-18.4,26.1-33.4,53.5-42.1,83.3c-0.4,1.4-0.9,2.8-1.5,4.1
			c-0.2,0.4-1,0.6-2.7,1.5c0-3.5-0.2-6.5,0-9.4c0.4-5.7,1-11.4,1.4-17.1c1.3-18,2.5-36,3.7-54c0.1-0.9,0.2-1.7,0.2-2.6
			c0.7-17.2,1.2-34.3,2.2-51.5c0.8-13.1,2.3-26.2,3.4-39.4c0.3-3.4,0.5-6.9,0.5-10.3c0.4-32.9,5.3-65.2,18.6-96.2
			c11-25.6,25.6-49.7,43.1-72.6c6.4-8.4,12.9-16.7,19.1-25.2c13.8-19,31.1-35.7,47.8-52.8c16.9-17.3,34.1-34.4,50.7-52
			c16.2-17.1,32.6-34.1,47.6-51.9c13.1-15.5,25.1-31.8,36-48.5c5.9-9.1,8.7-19.7,12.8-29.7c1.1-2.6,1.5-5.4,2.3-8.2
			C2114.7,1600.9,2115.7,1600.9,2116.6,1600.8z"/>
		<path class="st1" d="M2044.6,1511.4c-4.4,4.1-7.7,7.5-11.4,10.6c-12.7,10.5-25.6,20.9-38.4,31.4c-21,17.2-40.2,35.9-58,55.6
			c-13.3,14.6-24.4,30.7-36.2,46.3c-18.4,24.5-32.3,50.7-41.4,78.8c-0.2,0.7-1,1.4-2.8,3.7c-1-8-0.8-14.4-0.3-20.7
			c1-12,2.7-23.9,3.5-35.9c1-16.3,1.3-32.6,2.3-48.9c0.8-13.1,2.9-26.2,3.4-39.3c0.5-13.2,1.5-26.3,4.4-39.3
			c4.1-18.1,10.3-35.6,19.3-52.3c5.3-9.9,10.9-19.7,16.5-29.4c8.1-13.9,19.6-25.8,30.3-38.3c15.1-17.5,31.9-33.7,49.4-49.4
			c22.1-19.8,44.9-39.1,66.6-59.3c14.8-13.7,26.6-29.4,31.8-48c0.4-1.6,1.2-3.1,1.9-4.7c0.7,0,1.4,0,2.1,0c0.7,2.7,1.8,5.5,2,8.2
			c0.9,12.3,1.4,24.6,2.3,36.8c0.8,10.6,2,21.1,3.1,31.6c0.8,8.5,2,17.1,2.5,25.6c1,16,1.6,32,2.3,48c0.1,2.5-0.1,5.2-0.9,7.7
			c-6.3,18.8-13.7,37.7-29.6,52L2044.6,1511.4z"/>
		<path class="st1" d="M2175.4,2274.7c-56.4,13.1-115.1,20-175.4,20c-14.2,0-28.3-0.4-42.2-1.1c3.2-3.3,6.3-6.2,7.1-7
			c8.4-8.5,17.1-16.8,25.3-25.4c25.2-26.6,53.6-50.8,77.8-78.3c21.1-24,42.5-47.8,57.7-75.1c10.1-18.1,18.1-36.9,23.1-56.7
			c1.2-5,1.4-10.2,2.1-15.3c1.5,0,1.1,0,2.5-0.1c0.9,4.7,1.9,9.4,2.5,14.1c0.8,6.8,1.4,13.7,1.9,20.5c1.5,19.4,2.7,38.8,4.3,58.2
			c0.8,10,2.1,19.9,3.2,29.9c0.9,8.5,1.8,17.1,2.5,25.6c1.5,18.6,2.8,37.1,4.3,55.7C2173,2251.5,2174.5,2263.1,2175.4,2274.7z"/>
	</g>
	<path class="st1" d="M2126.9,1034.7c-1.2-1.5-2.8-2.2-4.4-2.8l-2-36.9v9.1c-0.5-0.2-1.1-0.4-1.6-0.7l0.4-2.2l1.2-6.2
		c0,0-22.3-9.3-65.4-14.9c0-3.8,0-7.6,0-11.4c2.6-1.7,4.3-2.6,5.8-3.7c7.4-5.3,8.2-10.6,1.7-16.9c-3.2-3.1-7.6-5.4-11.5-8
		c-1.4-0.9-2.8-1.8-4.4-2.8v-69.1c1.4-0.8,2.8-1.6,4.1-2.5c2.9-1.8,5.8-3.7,8.6-5.8l-5.4-9.1l-46.7-21.3c-4.5-2.2-8.8-4.3-12.9-6
		c0,0,0,0.1,0,0.1l-1.6-0.7c0.5,0.2,1.1,0.4,1.7,0.7c0.4-1.1,0.7-2.3,0.7-3.5c0-5.9-5.6-10.8-12.5-10.8c-6.9,0-12.5,4.8-12.5,10.8
		c0,1,0.2,2.1,0.5,3l-62.5,24.5l-5.6,12.3c0,0,4.5,3.4,12.6,7.7v-1.9c0.3,0.3,0.7,0.7,1,1c0.9,0.9,1.9,1.9,2.8,2.8c0,0,0,0,0,0.1
		c-1.4-0.7-2.6-1.4-3.8-2v68.9l0.3,0.2l0.5,0.3c-7,2.6-11.1,4.7-11.6,4.9c0,0-0.1,0-0.1,0c-3.7,2.4-6.6,5.2-8.6,8.9
		c-0.6,7.5,5.2,11.2,10.8,15.6c0.2,4.7,0.3,9.5,0.5,14.3c-20.2,2.5-41.8,6-64.6,10.7l-2.1,36c-0.6,0.8-1.2,1.6-2,2.4
		c-7.9,8.4-6.6,16.2,3.3,23.1c2.8,2,5.9,3.8,8.4,6.1c13.3,12.2,22.8,26.7,32.6,41c3.3,4.7,4.1,10.8,5.7,15.4
		c-7.3,11.7-6.8,14.5,2.2,20.8c12.3-3.8,23.8-8.8,36-10.8c12-1.9,24.5-4.8,38.2-1.2c-1.4,2.5-2.1,4.4-3.4,5.8
		c-5.4,5.5-10.9,10.8-16.5,16.1c-18.7,17.4-33.6,37-45.2,58.5c-8,15-12.8,30.8-14.3,47.2c-1.4,15.4-1.6,30.9-2.3,46.3
		c-0.1,1.4-0.3,2.9-0.4,4.3c-1.2,19.7-2.4,39.4-3.5,59.1c-0.1,1.4,0.7,2.8,1.4,5.7c4.7-9.7,7.8-18.3,12.8-26
		c11.9-18.5,24.1-37,37.3-54.9c12.2-16.4,26.4-31.7,43.4-44.8c9.9-7.6,20.1-15,30.1-22.5c12.1-9,24.1-18,36.2-27
		c2.3-1.7,5.1-3,6.7-5.1c8.8-11.4,17.8-22.9,25.7-34.7c4.6-6.9,7.4-14.6,11.6-23.2c-1.1-3.3-2.5-7.7-4-12.4
		c1.4-16.3,13.8-28.5,24-41.4c5.9-7.5,14-13.8,21-20.7C2132.2,1047.9,2132.9,1042.3,2126.9,1034.7z M1871,1017.4
		c-4.9,0.9-9.7,1.3-13.1,1.1c-1.3-1.9-2.1-3.8-2.5-5.8c-1.1-5-0.1-10.3-0.5-15.6c0-0.4-0.1-0.8-0.1-1.2l0.5,0.2v0.9
		c4.3-1.2,9.6-2.6,15.7-4V1017.4z M1889.1,1012c-3.2,1.6-7.7,3.1-12.6,4.3l0.7-24.8c3.7-0.8,7.7-1.7,11.9-2.5V1012z M1896.4,1010.7
		l-1-22.9c3.7-0.7,7.6-1.4,11.6-2c0.3,7.4,0.5,15,0.8,22.9C1904.2,1009.4,1900.3,1010,1896.4,1010.7z M1933.7,931.7
		c-2.3,0.6-4.6,1.2-6.6,1.8l-1.2-56.2l-0.1-4.4c0.1,0.1,0.2,0.1,0.3,0.1c2.4,1,4.9,2.1,7.6,3.1V931.7z M1934.7,883.3
		c0-0.5-0.2-4.3-0.1-6.8c0,0,0.1,0,0.1,0V883.3z M1934.7,874.4v-0.2l0.1,0C1934.7,874.2,1934.7,874.3,1934.7,874.4z M1965.5,926.5
		c-2.6,0.2-5.1,0.4-7.5,0.7l-1.8-44.4c3,0.6,6.2,1.2,9.4,1.6V926.5z M1985.7,926.2c-3-0.1-5.9-0.2-8.7-0.1v-40.5
		c2.9,0.2,5.8,0.2,8.7,0.2V926.2z M2005.5,928.1c-2.9-0.5-5.7-0.8-8.5-1.1v-42.1c3.2-0.4,6.4-0.8,9.6-1.5L2005.5,928.1z
		 M2033.9,935.2c-3.1-1.1-6.1-2-9.2-2.9c-0.3-0.1-0.6-0.2-0.9-0.3c0-4-0.1-8.2-0.1-9.8c0-9.4-0.1-30,0-43.3c0.3-0.1,0.7-0.2,1-0.4
		c3-1.1,6.1-2.3,9.2-3.7V935.2z M2066.5,1011.9c-0.8-0.2-1.7-0.4-2.5-0.6c-1.6-0.4-2.9-0.8-3.9-1.2c-3.8-1.5-4.9-3.6-5-8.5
		c-0.1-5.4-0.2-10.8-0.1-16.2c3.9,0.7,7.7,1.4,11.6,2.3V1011.9z M2088.7,1016.7l-16.1-3.7v-24c5.4,1.2,10.7,2.6,16.1,4.2V1016.7z
		 M2109.1,1021.5l-11-2.6v-22.8c3.7,1.2,7.4,2.4,11,3.8C2109,1007,2111.7,1014.9,2109.1,1021.5z"/>
</g>
</svg>
